<svg class="vector" width="300px" height="300px" xmlns="http://www.w3.org/2000/svg" baseProfile="full" version="1.1" style="width: 300px; height: 300px; stroke: rgb(0, 0, 0); stroke-width: 10px; fill: none; stroke-linecap: square;"><path d="M101,150 A48,48 0 0,0 53,198"></path><path d="M53,198 A-48,48 0 0,0 101,246"></path><path d="M101,246 A-49,-48 0 0,0 150,198"></path><path d="M150,198 A49,-48 0 0,0 101,150"></path><line x1="150" y1="198" x2="150" y2="246"></line><path d="M150,237 A10,9 0 0,1 140,246"></path><path d="M159,246 A9,-9 0 0,1 150,237"></path><line x1="159" y1="246" x2="140" y2="246"></line><path d="M150,198 A-48,-48 0 0,1 198,150"></path><path d="M198,150 A-48,48 0 0,1 246,198"></path><path d="M246,198 A48,48 0 0,1 198,246"></path><path d="M198,246 A48,-48 0 0,1 150,198"></path><path d="M101,111 A-49,-49 0 0,1 150,62"></path><path d="M150,62 A-48,49 0 0,1 198,111"></path><path d="M198,111 A48,48 0 0,1 150,159"></path><path d="M150,159 A49,-48 0 0,1 101,111"></path></svg>