<svg version="1.1" baseProfile="full" xmlns="http://www.w3.org/2000/svg">
  <path d="M75,125 a15,15 0 0,1 50,0 l-25,25 l-25,-25" fill="red"></path>
  <path d="M125,125 a15,15 0 0,1 50,0 l-25,25 l-25,-25" fill="red"></path>
  <path d="M25,125 a15,15 0 0,1 50,0 l-25,25 l-25,-25" fill="red"></path>
  <path d="M75,175 a15,15 0 0,1 50,0 l-25,25 l-25,-25" fill="red"></path>
  <path d="M125,175 a15,15 0 0,1 50,0 l-25,25 l-25,-25" fill="red"></path>
  <path d="M25,175 a15,15 0 0,1 50,0 l-25,25 l-25,-25" fill="red"></path>
</svg>
