<svg version="1.1" baseProfile="full" xmlns="http://www.w3.org/2000/svg" width="200" height="300">
  <path d="M100,150 l-25,25 a25,25 0 0,1 25,25 a25,25 0 0,1 25,-25" class="fill_black"/>
  <path d="M50,200 l-25,25 a25,25 0 0,1 25,25 a25,25 0 0,1 25,-25" class="fill_black"/>
  <path d="M50,150 l-25,25 a25,25 0 0,1 25,25 a25,25 0 0,1 25,-25" class="fill_black"/>
  <path d="M50,100 l-25,25 a25,25 0 0,1 25,25 a25,25 0 0,1 25,-25" class="fill_black"/>
  <path d="M150,200 l-25,25 a25,25 0 0,1 25,25 a25,25 0 0,1 25,-25" class="fill_black"/>
  <path d="M150,150 l-25,25 a25,25 0 0,1 25,25 a25,25 0 0,1 25,-25" class="fill_black"/>
  <path d="M150,100 l-25,25 a25,25 0 0,1 25,25 a25,25 0 0,1 25,-25" class="fill_black"/>
</svg>