<svg version="1.1" baseProfile="full" xmlns="http://www.w3.org/2000/svg" width="200" height="300">
  <!-- Head -->
  <path d="M25,140 l75,75 l75,-75 l-75,-75" fill="red"/>
  
  <circle cx="100" cy="150" r="25" fill="white"/>
  

  <!-- Body -->
  <path d="M20,310 l0,-50 a25,25 0 0,1 15,-15 l25,0 a25,25 0 0,0 25,-25 l0,-50 l30,0 l0,50 a25,25 0 0,0 25,25 l25,0 a15,15 0 0,1 15,15 l0,50" fill="red"></path>
  <line x1="0" y1="210" x2="300" y2="210" stroke-width="2px" stroke="white" stroke-linecap="round"/>
  <line x1="0" y1="220" x2="300" y2="220" stroke-width="2px" stroke="white" stroke-linecap="round"/>
  <!-- Face -->
  <path d="M62.5,155 a15,15 0 1,0 75,0 l-37.5,-25" fill="white"></path>
  <!-- Eyes -->
  <line x1="70" y1="160" x2="90" y2="160" stroke-width="2px" stroke="red" stroke-linecap="round"/>
  <line x1="110" y1="160" x2="130" y2="160" stroke-width="2px" stroke="red" stroke-linecap="round"/>
  
  <!--<circle cx="100" cy="150" r="5" fill="red"/>-->
  <circle cx="100" cy="100" r="5" fill="white"/>
</svg>
