<svg version="1.1" baseProfile="full" xmlns="http://www.w3.org/2000/svg" width="200" height="300">
  <circle cx="125" cy="125" r="60" class="fill_black"/>
  <circle cx="75" cy="125" r="60" class="fill_black"/>
  <!-- Head -->
  <!-- Body -->
  <path d="M20,310 l0,-50 a15,15 0 0,1 15,-15 l25,0 a25,25 0 0,0 25,-25 l0,-50 l30,0 l0,50 a25,25 0 0,0 25,25 l25,0 a15,15 0 0,1 15,15 l0,50" class="fill_black"></path>
  <line x1="0" y1="210" x2="300" y2="210" stroke-width="2px" stroke="white" stroke-linecap="round"/>
  <line x1="0" y1="220" x2="300" y2="220" stroke-width="2px" stroke="white" stroke-linecap="round"/>
  <path d="M95,220 a5,5 0 0,1 10,0" stroke-width="0px" stroke="#ccc" stroke-linecap="round" class="fill_white"></path>
  <!-- Face -->
  <path d="M62.5,155 a15,15 0 1,0 75,0 a37.5,37.5 0 0,1 -37.5,-37.5 a37.5,37.5 0 0,1 -37.5,37.5" class="fill_white"></path>
  <!-- Eyes -->
  <line x1="70" y1="160" x2="90" y2="160" stroke-width="2px" stroke="black" stroke-linecap="round"/>
  <line x1="110" y1="160" x2="130" y2="160" stroke-width="2px" stroke="black" stroke-linecap="round"/>
  <path d="M75,160 a5,5 0 1,0 10,0" stroke-width="2px" stroke="black" stroke-linecap="butt" class="fill_black"></path>
  <path d="M115,160 a5,5 0 1,0 10,0" stroke-width="2px" stroke="black" stroke-linecap="butt" class="fill_black"></path>
  <circle cx="90" cy="150" r="3" fill="#ddd"/>
  <circle cx="110" cy="150" r="3" fill="#ddd"/>
  <!-- nose -->
  <path d="M95,170 a5,5 0 1,0 10,0" stroke-width="0px" stroke="#ccc" stroke-linecap="round" fill="#ccc"></path>
  <!-- mouth -->
  <circle cx="100" cy="185" r="3" class="fill_black" stroke-width="0px"/>
  <!-- dot -->
  <circle cx="100" cy="100" r="5" class="fill_white"/>
</svg>